<?xml version="1.0" encoding="UTF-8" standalone="no"?>
<!-- Created with Inkscape (http://www.inkscape.org/) -->

<svg
   xmlns:dc="http://purl.org/dc/elements/1.1/"
   xmlns:cc="http://creativecommons.org/ns#"
   xmlns:rdf="http://www.w3.org/1999/02/22-rdf-syntax-ns#"
   xmlns:svg="http://www.w3.org/2000/svg"
   xmlns="http://www.w3.org/2000/svg"
   xmlns:xlink="http://www.w3.org/1999/xlink"
   xmlns:sodipodi="http://sodipodi.sourceforge.net/DTD/sodipodi-0.dtd"
   xmlns:inkscape="http://www.inkscape.org/namespaces/inkscape"
   width="534.8606"
   height="104.53557"
   id="svg2"
   version="1.1"
   inkscape:version="0.47 r22583"
   sodipodi:docname="aptget.svg"
   inkscape:export-filename="/home/dominik/projects/holdingnuts/master/website/aptget.png"
   inkscape:export-xdpi="42.1866"
   inkscape:export-ydpi="42.1866">
  <defs
     id="defs4">
    <linearGradient
       id="linearGradient3594">
      <stop
         style="stop-color:#f0f0f0;stop-opacity:1"
         offset="0"
         id="stop3596" />
      <stop
         style="stop-color:#c8c89a;stop-opacity:1"
         offset="1"
         id="stop3598" />
    </linearGradient>
    <inkscape:perspective
       sodipodi:type="inkscape:persp3d"
       inkscape:vp_x="0 : 526.18109 : 1"
       inkscape:vp_y="0 : 1000 : 0"
       inkscape:vp_z="744.09448 : 526.18109 : 1"
       inkscape:persp3d-origin="372.04724 : 350.78739 : 1"
       id="perspective10" />
    <linearGradient
       inkscape:collect="always"
       xlink:href="#linearGradient3594"
       id="linearGradient3602"
       x1="329.30975"
       y1="162.45845"
       x2="329.30975"
       y2="243.07584"
       gradientUnits="userSpaceOnUse" />
    <inkscape:perspective
       id="perspective3034"
       inkscape:persp3d-origin="0.5 : 0.33333333 : 1"
       inkscape:vp_z="1 : 0.5 : 1"
       inkscape:vp_y="0 : 1000 : 0"
       inkscape:vp_x="0 : 0.5 : 1"
       sodipodi:type="inkscape:persp3d" />
    <clipPath
       clipPathUnits="userSpaceOnUse"
       id="clipPath2916">
      <path
         d="m 0,595.276 841.89,0 L 841.89,0 0,0 0,595.276 z"
         id="path2918" />
    </clipPath>
    <filter
       id="filter3747"
       inkscape:label="Drop shadow"
       width="1.5"
       height="1.5"
       x="-0.25"
       y="-0.25"
       color-interpolation-filters="sRGB">
      <feGaussianBlur
         id="feGaussianBlur3749"
         in="SourceAlpha"
         stdDeviation="2,000000"
         result="blur" />
      <feColorMatrix
         id="feColorMatrix3751"
         result="bluralpha"
         type="matrix"
         values="1 0 0 0 0 0 1 0 0 0 0 0 1 0 0 0 0 0 0,500000 0 " />
      <feOffset
         id="feOffset3753"
         in="bluralpha"
         dx="4,000000"
         dy="4,000000"
         result="offsetBlur" />
      <feMerge
         id="feMerge3755">
        <feMergeNode
           id="feMergeNode3757"
           in="offsetBlur" />
        <feMergeNode
           id="feMergeNode3759"
           in="SourceGraphic" />
      </feMerge>
    </filter>
  </defs>
  <sodipodi:namedview
     id="base"
     pagecolor="#ffffff"
     bordercolor="#666666"
     borderopacity="1.0"
     inkscape:pageopacity="0.0"
     inkscape:pageshadow="2"
     inkscape:zoom="1.4"
     inkscape:cx="269.19641"
     inkscape:cy="59.382883"
     inkscape:document-units="px"
     inkscape:current-layer="layer1"
     showgrid="false"
     inkscape:window-width="1052"
     inkscape:window-height="819"
     inkscape:window-x="226"
     inkscape:window-y="149"
     inkscape:window-maximized="0" />
  <metadata
     id="metadata7">
    <rdf:RDF>
      <cc:Work
         rdf:about="">
        <dc:format>image/svg+xml</dc:format>
        <dc:type
           rdf:resource="http://purl.org/dc/dcmitype/StillImage" />
        <dc:title></dc:title>
      </cc:Work>
    </rdf:RDF>
  </metadata>
  <g
     inkscape:label="Ebene 1"
     inkscape:groupmode="layer"
     id="layer1"
     transform="translate(-65.920059,-163.68809)">
    <rect
       style="fill:url(#linearGradient3602);fill-opacity:1;fill-rule:evenodd;stroke:#000000;stroke-width:1px;stroke-linecap:butt;stroke-linejoin:miter;stroke-opacity:1;filter:url(#filter3747)"
       id="rect2818"
       width="355.57373"
       height="68.690376"
       x="155.56349"
       y="181.61069"
       rx="23.223331"
       ry="28.284271" />
    <text
       xml:space="preserve"
       style="font-size:24px;font-style:normal;font-weight:normal;fill:#000000;fill-opacity:1;stroke:none;font-family:Bitstream Vera Sans"
       x="246.47723"
       y="224.03709"
       id="text3622"><tspan
         sodipodi:role="line"
         id="tspan3624"
         x="246.47723"
         y="224.03709">Install HoldingNuts</tspan></text>
    <g
       transform="matrix(0.27424532,0,0,-0.27424532,83.411038,292.33707)"
       id="g2912">
      <g
         id="g2914"
         clip-path="url(#clipPath2916)">
        <g
           id="g2920"
           transform="translate(442.1299,357.9253)">
          <path
             d="m 0,0 c 0,0 6.956,-9.326 18.337,-16.914 11.383,-7.587 16.915,-18.022 16.915,-26.241 0,-8.22 -7.588,-16.913 -16.283,-16.913 -8.695,0 -16.282,6.955 -16.282,8.852 0,1.896 1.897,-14.545 16.835,-18.733 l -33.432,-0.08 c 0,0 10.749,1.266 14.7,18.654 0,0 -4.584,-9.958 -15.648,-9.958 -11.065,0 -17.705,9.169 -17.705,17.072 0,7.904 4.476,16.475 18.653,28.454 C -10.932,-13.29 0,0 0,0"
             style="fill:#000000;fill-opacity:1;fill-rule:nonzero;stroke:none"
             id="path2922" />
        </g>
        <g
           id="g2924"
           transform="translate(390.0034,244.4141)">
          <path
             d="m 0,0 -7.552,0 0,13.934 -7.343,0 0,-13.934 -7.552,0 0,35.637 7.552,0 0,-13.887 7.343,0 0,13.887 7.552,0 L 0,0 z"
             style="fill:#c90000;fill-opacity:1;fill-rule:nonzero;stroke:none"
             id="path2926" />
        </g>
        <g
           id="g2928"
           transform="translate(403.5547,273.1074)">
          <path
             d="m 0,0 c -0.56,0 -1.056,-0.09 -1.489,-0.268 -0.434,-0.177 -0.798,-0.387 -1.092,-0.63 -0.293,-0.243 -0.517,-0.51 -0.67,-0.801 -0.155,-0.291 -0.231,-0.551 -0.231,-0.778 l 0,-16.797 c 0,-0.227 0.076,-0.486 0.231,-0.778 0.153,-0.291 0.37,-0.557 0.649,-0.801 0.28,-0.243 0.63,-0.453 1.05,-0.63 0.419,-0.179 0.908,-0.268 1.468,-0.268 0.559,0 1.056,0.089 1.489,0.268 0.434,0.177 0.798,0.387 1.091,0.63 0.294,0.244 0.518,0.51 0.671,0.801 0.154,0.292 0.231,0.551 0.231,0.778 l 0,16.797 c 0,0.518 -0.3,1.061 -0.902,1.627 C 1.895,-0.283 1.063,0 0,0 m 0.042,-29.567 c -1.539,0 -2.979,0.202 -4.322,0.607 -1.342,0.404 -2.517,1.012 -3.524,1.82 -1.007,0.809 -1.798,1.836 -2.37,3.083 -0.574,1.245 -0.861,2.71 -0.861,4.394 l 0,17.575 c 0,1.683 0.28,3.148 0.84,4.395 0.559,1.245 1.335,2.273 2.328,3.082 0.992,0.808 2.154,1.416 3.483,1.821 1.328,0.404 2.748,0.606 4.258,0.606 1.538,0 2.979,-0.202 4.321,-0.606 C 5.538,6.805 6.713,6.197 7.72,5.389 8.727,4.58 9.517,3.552 10.09,2.307 10.663,1.06 10.95,-0.405 10.95,-2.088 l 0,-17.575 c 0,-1.684 -0.28,-3.149 -0.839,-4.394 C 9.551,-25.304 8.775,-26.331 7.783,-27.14 6.79,-27.948 5.628,-28.556 4.3,-28.96 2.972,-29.365 1.552,-29.567 0.042,-29.567"
             style="fill:#000000;fill-opacity:1;fill-rule:nonzero;stroke:none"
             id="path2930" />
        </g>
        <g
           id="g2932"
           transform="translate(435.9023,252.2305)">
          <path
             d="m 0,0 0,-7.816 -18.88,0 0,35.636 7.552,0 0,-27.82 L 0,0 z"
             style="fill:#000000;fill-opacity:1;fill-rule:nonzero;stroke:none"
             id="path2934" />
        </g>
        <g
           id="g2936"
           transform="translate(444.9229,252.2305)">
          <path
             d="m 0,0 4.447,0 c 0.839,0 1.532,0.413 2.077,1.238 0.545,0.825 0.979,1.788 1.301,2.889 0.321,1.1 0.537,2.217 0.651,3.35 0.111,1.132 0.168,1.991 0.168,2.574 0,0.582 -0.037,1.424 -0.106,2.523 -0.07,1.101 -0.245,2.201 -0.524,3.302 -0.281,1.101 -0.701,2.063 -1.259,2.89 -0.561,0.824 -1.328,1.237 -2.308,1.237 L 0,20.003 0,0 z m -7.552,27.82 12.167,0 c 2.545,0 4.595,-0.486 6.147,-1.457 1.551,-0.97 2.748,-2.274 3.587,-3.908 0.839,-1.635 1.398,-3.528 1.678,-5.681 0.28,-2.153 0.447,-4.393 0.503,-6.723 l 0,-0.098 C 16.474,7.623 16.307,5.381 16.027,3.229 15.747,1.076 15.188,-0.817 14.349,-2.451 13.51,-4.086 12.313,-5.389 10.762,-6.36 9.21,-7.331 7.16,-7.816 4.615,-7.816 l -12.167,0 0,35.636 z"
             style="fill:#000000;fill-opacity:1;fill-rule:nonzero;stroke:none"
             id="path2938" />
        </g>
        <path
           d="m 463.971,280.051 7.552,0 0,-35.637 -7.552,0 0,35.637 z"
           style="fill:#000000;fill-opacity:1;fill-rule:nonzero;stroke:none"
           id="path2940" />
        <g
           id="g2942"
           transform="translate(474.46,280.0508)">
          <path
             d="m 0,0 7.972,0 7.719,-18.984 0,18.984 7.553,0 0,-35.637 -7.972,0 -7.719,18.547 0,-18.547 -7.553,0 L 0,0 z"
             style="fill:#000000;fill-opacity:1;fill-rule:nonzero;stroke:none"
             id="path2944" />
        </g>
        <g
           id="g2946"
           transform="translate(522.71,264.9023)">
          <path
             d="m 0,0 0,-9.613 c 0,-1.522 -0.147,-2.986 -0.44,-4.394 -0.294,-1.408 -0.84,-2.663 -1.637,-3.763 -0.797,-1.099 -1.916,-1.973 -3.357,-2.622 -1.441,-0.646 -3.307,-0.97 -5.601,-0.97 -2.098,0 -3.881,0.348 -5.349,1.044 -1.469,0.696 -2.672,1.65 -3.608,2.864 -0.938,1.214 -1.623,2.63 -2.056,4.248 -0.434,1.618 -0.65,3.351 -0.65,5.195 l 0,10.73 c 0,1.845 0.216,3.568 0.65,5.171 0.433,1.602 1.125,3.009 2.076,4.223 0.951,1.214 2.161,2.168 3.63,2.866 1.468,0.695 3.237,1.042 5.307,1.042 2.294,0 4.139,-0.324 5.538,-0.97 1.398,-0.649 2.497,-1.522 3.294,-2.622 0.797,-1.101 1.343,-2.355 1.637,-3.763 0.293,-1.408 0.467,-2.873 0.524,-4.394 l -7.553,0 c 0,0.324 -0.028,0.712 -0.084,1.166 -0.055,0.453 -0.195,0.89 -0.419,1.31 -0.224,0.421 -0.566,0.77 -1.028,1.045 -0.461,0.273 -1.098,0.412 -1.909,0.412 -0.671,0 -1.266,-0.178 -1.783,-0.534 -0.518,-0.357 -0.952,-0.833 -1.3,-1.433 -0.351,-0.598 -0.609,-1.286 -0.777,-2.062 -0.168,-0.778 -0.251,-1.587 -0.251,-2.428 l 0,-8.739 c 0,-0.874 0.083,-1.699 0.251,-2.477 0.168,-0.776 0.426,-1.472 0.777,-2.087 0.348,-0.615 0.782,-1.101 1.3,-1.457 0.517,-0.356 1.112,-0.534 1.783,-0.534 0.811,0 1.448,0.138 1.909,0.413 0.462,0.275 0.812,0.623 1.049,1.044 0.237,0.42 0.385,0.85 0.44,1.286 0.056,0.438 0.084,0.833 0.084,1.19 l 0,1.797 -3.482,0 0,7.816 L 0,0 z"
             style="fill:#000000;fill-opacity:1;fill-rule:nonzero;stroke:none"
             id="path2948" />
        </g>
        <g
           id="g2950"
           transform="translate(367.6006,286.6074)">
          <path
             d="M 0,0 154.405,0"
             style="fill:none;stroke:#000000;stroke-width:3;stroke-linecap:round;stroke-linejoin:miter;stroke-miterlimit:4;stroke-opacity:1;stroke-dasharray:none"
             id="path2952" />
        </g>
        <g
           id="g2954"
           transform="translate(367.6006,238.6094)">
          <path
             d="M 0,0 154.405,0"
             style="fill:none;stroke:#000000;stroke-width:3;stroke-linecap:round;stroke-linejoin:miter;stroke-miterlimit:4;stroke-opacity:1;stroke-dasharray:none"
             id="path2956" />
        </g>
        <g
           id="g2958"
           transform="translate(438.876,205.75)">
          <path
             d="m 0,0 c 0.244,-0.789 -0.196,-1.629 -0.985,-1.874 l -30.008,-9.331 c -0.789,-0.246 -1.627,0.195 -1.873,0.984 l -13.703,44.059 c -0.246,0.789 0.196,1.628 0.985,1.871 l 30.007,9.334 c 0.789,0.245 1.628,-0.194 1.873,-0.984 L 0,0 z"
             style="fill:#ffffff;fill-opacity:1;fill-rule:nonzero;stroke:none"
             id="path2960" />
        </g>
        <g
           id="g2962"
           transform="translate(438.876,205.75)">
          <path
             d="m 0,0 c 0.244,-0.789 -0.196,-1.629 -0.985,-1.874 l -30.008,-9.331 c -0.789,-0.246 -1.627,0.195 -1.873,0.984 l -13.703,44.059 c -0.246,0.789 0.196,1.628 0.985,1.871 l 30.007,9.334 c 0.789,0.245 1.628,-0.194 1.873,-0.984 L 0,0 z"
             style="fill:none;stroke:#000000;stroke-width:1;stroke-linecap:butt;stroke-linejoin:miter;stroke-miterlimit:4;stroke-opacity:1;stroke-dasharray:none"
             id="path2964" />
        </g>
        <g
           id="g2966"
           transform="translate(413.1377,229.6563)">
          <path
             d="m 0,0 c 0,0 2.144,-1.557 5.132,-2.438 2.988,-0.88 4.899,-2.774 5.455,-4.564 0.557,-1.785 -0.506,-4.191 -2.398,-4.777 -1.891,-0.59 -4.012,0.409 -4.14,0.822 -0.128,0.412 1.396,-3.035 4.929,-2.936 l -7.267,-2.278 c 0,0 2.255,1.003 1.936,5.05 0,0 -0.324,-2.475 -2.728,-3.223 -2.408,-0.75 -4.473,0.795 -5.007,2.515 -0.534,1.718 -0.141,3.888 2.133,7.45 C -1.479,-3.629 0,0 0,0"
             style="fill:#000000;fill-opacity:1;fill-rule:nonzero;stroke:none"
             id="path2968" />
        </g>
        <g
           id="g2970"
           transform="translate(399.7759,232.3857)">
          <path
             d="M 0,0 C 0,0 0.644,-0.448 1.545,-0.696 2.446,-0.939 3.018,-1.483 3.179,-2.004 3.341,-2.522 3.011,-3.229 2.435,-3.405 1.86,-3.585 1.222,-3.3 1.184,-3.182 1.146,-3.059 1.597,-4.062 2.666,-4.02 L 0.458,-4.709 c 0,0 0.683,0.298 0.604,1.476 0,0 -0.107,-0.719 -0.837,-0.948 -0.732,-0.23 -1.349,0.215 -1.509,0.714 -0.153,0.499 -0.028,1.132 0.676,2.18 C -0.462,-1.066 0,0 0,0"
             style="fill:#000000;fill-opacity:1;fill-rule:nonzero;stroke:none"
             id="path2972" />
        </g>
        <g
           id="g2974"
           transform="translate(398.7749,236.665)">
          <path
             d="M 0,0 C -0.128,0.203 -1.073,1.814 -1.156,1.956 -1.208,2.04 -1.234,2.083 -1.258,2.075 -1.294,2.064 -1.308,2.025 -1.305,1.951 -1.297,1.845 -1.249,-0.196 -1.236,-0.385 L 0,0 z m -1.225,-0.715 c 0.007,-0.19 0.054,-1.37 0.089,-1.586 0.006,-0.064 0.026,-0.126 0.037,-0.164 0.031,-0.098 0.153,-0.152 0.272,-0.115 l 0.25,0.077 c 0.047,0.015 0.063,0.004 0.071,-0.019 l 0.059,-0.191 c 0.014,-0.046 0.011,-0.08 -0.025,-0.091 -0.083,-0.026 -0.339,-0.08 -0.755,-0.21 -0.44,-0.136 -0.564,-0.2 -0.647,-0.226 -0.035,-0.011 -0.05,0.035 -0.066,0.089 l -0.045,0.144 c -0.015,0.046 -0.008,0.065 0.016,0.071 l 0.179,0.056 c 0.166,0.052 0.239,0.192 0.273,0.461 0.017,0.156 0.019,1.66 -0.002,2.356 -0.006,0.166 -0.037,1.961 -0.039,2.179 -0.011,0.078 -0.018,0.227 -0.068,0.262 -0.025,0.018 -0.058,0.058 -0.064,0.08 -0.01,0.03 -0.008,0.065 0.036,0.095 0.171,0.121 0.426,0.451 0.469,0.564 0.022,0.057 0.036,0.095 0.066,0.105 0.036,0.01 0.088,-0.075 0.114,-0.116 C -0.751,2.667 0.243,1.104 0.502,0.649 0.83,0.1 1.651,-1.199 1.798,-1.38 1.986,-1.604 2.169,-1.648 2.287,-1.611 l 0.191,0.058 c 0.036,0.012 0.052,0 0.064,-0.038 l 0.049,-0.16 C 2.605,-1.797 2.608,-1.846 2.561,-1.86 2.454,-1.894 2.328,-1.907 1.674,-2.111 1.174,-2.267 0.979,-2.353 0.849,-2.394 0.801,-2.408 0.775,-2.366 0.761,-2.32 l -0.048,0.152 c -0.014,0.046 -0.007,0.064 0.029,0.075 l 0.154,0.049 c 0.167,0.052 0.191,0.143 0.091,0.338 -0.133,0.259 -0.674,1.161 -0.833,1.42 l -1.379,-0.429 z"
             style="fill:#000000;fill-opacity:1;fill-rule:nonzero;stroke:none"
             id="path2976" />
        </g>
        <g
           id="g2978"
           transform="translate(444.3242,198.9785)">
          <path
             d="m 0,0 c -0.104,-0.818 -0.852,-1.402 -1.672,-1.299 l -31.181,3.912 c -0.82,0.104 -1.4,0.852 -1.297,1.672 l 5.746,45.781 c 0.101,0.821 0.85,1.401 1.67,1.299 L 4.445,47.451 c 0.822,-0.103 1.403,-0.849 1.299,-1.67 L 0,0 z"
             style="fill:#ffffff;fill-opacity:1;fill-rule:nonzero;stroke:none"
             id="path2980" />
        </g>
        <g
           id="g2982"
           transform="translate(444.3242,198.9785)">
          <path
             d="m 0,0 c -0.104,-0.818 -0.852,-1.402 -1.672,-1.299 l -31.181,3.912 c -0.82,0.104 -1.4,0.852 -1.297,1.672 l 5.746,45.781 c 0.101,0.821 0.85,1.401 1.67,1.299 L 4.445,47.451 c 0.822,-0.103 1.403,-0.849 1.299,-1.67 L 0,0 z"
             style="fill:none;stroke:#000000;stroke-width:1;stroke-linecap:butt;stroke-linejoin:miter;stroke-miterlimit:4;stroke-opacity:1;stroke-dasharray:none"
             id="path2984" />
        </g>
        <g
           id="g2986"
           transform="translate(420.7217,243.6348)">
          <path
             d="M 0,0 C -0.033,0.236 -0.227,2.095 -0.244,2.259 -0.257,2.356 -0.264,2.405 -0.288,2.408 -0.325,2.413 -0.354,2.385 -0.381,2.315 -0.419,2.216 -1.219,0.338 -1.285,0.16 L 0,0 z m -1.411,-0.145 c -0.072,-0.175 -0.518,-1.271 -0.574,-1.48 -0.021,-0.063 -0.029,-0.125 -0.034,-0.165 -0.013,-0.104 0.075,-0.202 0.198,-0.218 l 0.259,-0.033 c 0.05,-0.006 0.061,-0.022 0.058,-0.047 l -0.024,-0.198 c -0.007,-0.047 -0.024,-0.077 -0.061,-0.072 -0.086,0.01 -0.343,0.066 -0.774,0.121 -0.457,0.057 -0.597,0.05 -0.684,0.061 -0.037,0.005 -0.03,0.053 -0.023,0.108 l 0.018,0.15 c 0.006,0.048 0.021,0.062 0.045,0.059 l 0.186,-0.024 c 0.173,-0.021 0.298,0.076 0.44,0.308 0.078,0.134 0.702,1.504 0.972,2.145 0.062,0.154 0.777,1.801 0.865,1.999 0.023,0.077 0.077,0.216 0.046,0.268 -0.015,0.026 -0.027,0.076 -0.024,0.1 0.003,0.031 0.02,0.061 0.07,0.071 C -0.245,3.046 0.124,3.242 0.21,3.327 0.253,3.37 0.281,3.398 0.313,3.395 0.35,3.39 0.362,3.292 0.369,3.243 0.418,2.738 0.678,0.904 0.725,0.384 0.797,-0.253 1.007,-1.775 1.066,-2 1.144,-2.283 1.292,-2.398 1.416,-2.414 L 1.614,-2.439 C 1.65,-2.443 1.661,-2.461 1.656,-2.501 L 1.636,-2.667 C 1.63,-2.714 1.61,-2.76 1.562,-2.754 1.45,-2.74 1.33,-2.701 0.65,-2.615 c -0.519,0.064 -0.732,0.067 -0.868,0.085 -0.05,0.006 -0.055,0.054 -0.05,0.102 l 0.02,0.158 c 0.006,0.048 0.02,0.062 0.058,0.057 l 0.161,-0.019 c 0.173,-0.023 0.231,0.05 0.221,0.269 -0.013,0.291 -0.132,1.336 -0.171,1.639 l -1.432,0.179 z"
             style="fill:#000000;fill-opacity:1;fill-rule:nonzero;stroke:none"
             id="path2988" />
        </g>
        <g
           id="g2990"
           transform="translate(434.5557,216.123)">
          <path
             d="m 0,0 -10.147,1.373 0.15,0.395 c 1.353,0.1 2.265,0.257 2.732,0.47 0.701,0.32 1.312,0.85 1.83,1.592 0.519,0.742 0.839,1.557 0.959,2.442 0.017,0.128 0.038,0.312 0.063,0.552 C -5.034,5.9 -5.724,5.26 -6.484,4.898 -7.243,4.539 -7.987,4.408 -8.713,4.506 c -0.925,0.125 -1.667,0.555 -2.226,1.288 -0.559,0.734 -0.775,1.571 -0.648,2.514 0.126,0.924 0.527,1.665 1.203,2.219 0.677,0.554 1.39,0.78 2.14,0.679 0.478,-0.065 1.1,-0.356 1.867,-0.874 -0.259,0.604 -0.42,1.054 -0.48,1.35 -0.063,0.297 -0.07,0.609 -0.026,0.936 0.123,0.909 0.543,1.637 1.258,2.183 0.716,0.544 1.543,0.753 2.485,0.625 0.942,-0.127 1.691,-0.549 2.247,-1.267 0.557,-0.718 0.777,-1.511 0.659,-2.38 -0.096,-0.711 -0.472,-1.419 -1.128,-2.127 0.713,0.229 1.14,0.354 1.282,0.375 0.224,0.036 0.472,0.035 0.742,-0.002 C 1.461,9.917 2.11,9.51 2.612,8.804 3.113,8.099 3.301,7.282 3.176,6.357 3.046,5.4 2.616,4.64 1.886,4.076 1.155,3.514 0.341,3.293 -0.562,3.415 -1.063,3.482 -1.563,3.674 -2.062,3.989 -2.559,4.305 -2.977,4.691 -3.312,5.152 -3.552,5.484 -3.831,6.03 -4.15,6.789 -4.29,5.516 -4.232,4.486 -3.977,3.7 -3.724,2.914 -3.262,2.229 -2.592,1.643 -2.142,1.248 -1.291,0.841 -0.04,0.42 L 0,0 z"
             style="fill:#000000;fill-opacity:1;fill-rule:nonzero;stroke:none"
             id="path2992" />
        </g>
        <g
           id="g2994"
           transform="translate(420.665,234.2559)">
          <path
             d="M 0,0 -2.984,0.404 -2.94,0.52 c 0.399,0.03 0.666,0.076 0.803,0.138 0.206,0.094 0.386,0.25 0.539,0.469 0.152,0.218 0.245,0.457 0.281,0.717 0.005,0.039 0.011,0.093 0.019,0.163 C -1.48,1.735 -1.684,1.547 -1.906,1.44 -2.13,1.335 -2.349,1.296 -2.562,1.325 -2.834,1.361 -3.053,1.488 -3.218,1.704 -3.381,1.92 -3.444,2.166 -3.407,2.443 c 0.037,0.272 0.155,0.49 0.353,0.653 0.199,0.162 0.408,0.229 0.629,0.199 0.141,-0.019 0.324,-0.105 0.55,-0.257 -0.077,0.178 -0.123,0.31 -0.143,0.398 -0.016,0.086 -0.019,0.178 -0.006,0.275 0.036,0.267 0.16,0.48 0.37,0.641 0.21,0.16 0.453,0.221 0.73,0.184 0.277,-0.037 0.497,-0.162 0.66,-0.373 C -0.1,3.953 -0.035,3.72 -0.069,3.464 -0.098,3.255 -0.209,3.047 -0.4,2.838 -0.19,2.905 -0.065,2.942 -0.024,2.949 0.042,2.959 0.114,2.959 0.193,2.947 0.428,2.916 0.62,2.796 0.768,2.589 0.915,2.381 0.97,2.142 0.933,1.869 0.895,1.589 0.77,1.364 0.554,1.199 0.34,1.033 0.1,0.969 -0.166,1.005 -0.313,1.024 -0.461,1.08 -0.606,1.173 -0.753,1.266 -0.876,1.38 -0.975,1.516 -1.045,1.613 -1.127,1.773 -1.221,1.996 -1.263,1.622 -1.245,1.319 -1.17,1.088 -1.095,0.857 -0.96,0.655 -0.764,0.483 -0.63,0.367 -0.381,0.247 -0.013,0.124 L 0,0 z"
             style="fill:#000000;fill-opacity:1;fill-rule:nonzero;stroke:none"
             id="path2996" />
        </g>
        <g
           id="g2998"
           transform="translate(477.2363,200.2813)">
          <path
             d="m 0,0 c 0.082,-0.043 0.187,-0.334 0.199,-0.484 0.005,-0.049 0.009,-0.1 -0.069,-0.106 -1.209,-0.056 -2.068,-0.082 -3.545,-0.211 -1.672,-0.146 -2.562,-0.275 -3.567,-0.414 -0.078,-0.006 -0.082,0.043 -0.086,0.094 -0.023,0.248 -0.001,0.451 0.111,0.512 l 1.161,0.603 c 0.298,0.176 0.358,0.381 0.362,0.784 -0.022,0.701 -0.273,5.347 -0.444,7.29 -0.336,3.834 -0.925,9.657 -2.868,9.486 -1.516,-0.133 -2.567,-4.241 -2.819,-9.382 -0.034,-1.408 0.036,-5.77 0.271,-8.008 0.035,-0.398 0.203,-0.535 0.406,-0.617 l 1.249,-0.393 c 0.121,-0.039 0.186,-0.334 0.2,-0.484 0.003,-0.049 0.008,-0.1 -0.07,-0.106 -1.209,-0.056 -2.185,-0.091 -3.623,-0.217 -1.594,-0.14 -2.483,-0.269 -3.645,-0.421 -0.077,-0.006 -0.082,0.043 -0.086,0.094 -0.023,0.248 0.033,0.503 0.145,0.563 l 1.361,0.572 c 0.224,0.118 0.367,0.282 0.34,0.581 -0.122,1.395 -0.724,7.366 -0.89,9.258 -0.131,1.494 -0.816,7.508 -1.007,9.248 -0.031,0.349 -0.131,0.591 -0.407,0.617 l -1.334,0.034 c -0.116,-0.01 -0.269,0.378 -0.29,0.628 -0.005,0.049 -0.009,0.098 0.103,0.159 l 5.902,1.924 c 0.19,0.066 0.285,-0.127 0.307,-0.376 0.017,-0.199 0.364,-5.489 0.492,-7.836 0.043,-0.499 0.048,-1.001 0.057,-1.552 l 0.156,0.014 c 0.064,0.608 0.132,1.167 0.189,1.422 0.561,3.864 2.141,8.62 4.551,8.831 2.682,0.237 4.262,-3.039 4.808,-9.264 0.289,-3.288 0.58,-9.286 0.609,-11.392 0.017,-0.65 0.112,-0.844 0.436,-0.967 L 0,0 z"
             style="fill:#000000;fill-opacity:1;fill-rule:nonzero;stroke:none"
             id="path3000" />
        </g>
        <g
           id="g3002"
           transform="translate(507.8779,223.3994)">
          <path
             d="m 0,0 c 0.142,-3.401 0.396,-7.194 0.763,-11.379 0.63,-7.172 2.12,-8.095 3.519,-7.972 0.312,0.028 0.622,0.055 0.89,0.128 0.307,0.077 0.795,0.322 1.464,0.731 0.112,0.059 0.177,-0.237 0.194,-0.435 0.023,-0.249 -0.047,-0.356 -0.12,-0.412 -0.44,-0.34 -1.532,-1.289 -2.72,-1.594 -0.267,-0.074 -0.579,-0.101 -1.589,-0.19 -3.148,-0.276 -5.37,1.387 -6.038,8.556 -0.236,2.689 -0.474,8.542 -0.513,12.101 l -2.484,-0.267 c -0.077,-0.007 -0.16,0.036 -0.177,0.235 -0.013,0.15 -0.004,0.501 0.046,0.808 0.091,0.309 0.216,0.671 0.566,0.703 l 2.064,0.131 c -0.001,0.902 0.032,2.762 0.168,4.33 0.03,0.554 0.249,1.176 1.247,1.866 0.668,0.411 2.041,1.284 2.275,1.305 0.078,0.006 0.125,-0.091 0.113,-0.393 0.005,-1.403 0.078,-4.911 0.201,-6.758 L 4.585,1.757 C 4.624,1.76 4.667,1.714 4.671,1.665 4.697,1.366 4.581,0.904 4.504,0.897 L 0,0 z"
             style="fill:#000000;fill-opacity:1;fill-rule:nonzero;stroke:none"
             id="path3004" />
        </g>
        <g
           id="g3006"
           transform="translate(514.5352,218.9629)">
          <path
             d="M 0,0 C -0.297,3.388 2.005,7.506 6.163,7.87 7.33,7.973 8.197,7.896 8.681,7.74 8.807,7.649 8.85,7.604 8.867,7.404 L 9.619,2.853 C 9.642,2.604 9.317,2.273 9.162,2.26 9.123,2.257 9.084,2.254 9.037,2.35 8.427,3.502 7.864,4.556 7.138,5.697 6.999,5.936 6.865,6.125 6.61,6.354 6.312,6.629 5.832,6.736 5.327,6.693 3.889,6.566 3.208,4.95 3.352,3.308 3.535,1.215 4.413,0.137 6.666,-1.423 c 2.377,-1.648 4.037,-3.61 4.295,-6.55 0.371,-4.233 -2.39,-7.588 -6.703,-7.966 -0.545,-0.048 -1.836,-0.06 -2.523,0.181 -0.121,0.038 -0.247,0.129 -0.311,0.424 l -0.718,4.605 c -0.022,0.25 0.345,0.533 0.461,0.543 0.039,0.003 0.078,0.006 0.126,-0.09 0.602,-1.052 1.264,-2.349 1.947,-3.443 0.229,-0.382 0.519,-0.558 0.77,-0.736 0.333,-0.223 0.816,-0.379 1.205,-0.346 1.476,0.13 2.896,1.359 2.695,3.65 -0.17,1.942 -1.147,3.261 -3.719,4.894 -2.736,1.718 -3.96,3.618 -4.187,6.208 L 0,0 z"
             style="fill:#000000;fill-opacity:1;fill-rule:nonzero;stroke:none"
             id="path3008" />
        </g>
        <g
           id="g3010"
           transform="translate(496.5557,221.8652)">
          <path
             d="m 0,0 c 0,0 2.576,-20.268 -7.523,-19.363 -10.1,0.9 -8.975,17.908 -8.975,17.908"
             style="fill:none;stroke:#000000;stroke-width:3;stroke-linecap:round;stroke-linejoin:round;stroke-miterlimit:4;stroke-opacity:1;stroke-dasharray:none"
             id="path3012" />
        </g>
        <g
           id="g3014"
           transform="translate(496.8193,221.7891)">
          <path
             d="m 0,0 c -9.468,3.627 -17.572,-3.053 -17.572,-3.053 0,0 -0.542,-2.301 0.228,-2.756 0.771,-0.451 17.816,3.514 17.816,3.514 L 0,0 z"
             style="fill:none;stroke:#000000;stroke-width:6;stroke-linecap:round;stroke-linejoin:round;stroke-miterlimit:4;stroke-opacity:1;stroke-dasharray:none"
             id="path3016" />
        </g>
        <g
           id="g3018"
           transform="translate(486.1846,227.8047)">
          <path
             d="M 0,0 C 0,0 1.394,-1.303 1.576,-3.311"
             style="fill:none;stroke:#000000;stroke-width:3;stroke-linecap:round;stroke-linejoin:round;stroke-miterlimit:4;stroke-opacity:1;stroke-dasharray:none"
             id="path3020" />
        </g>
        <g
           id="g3022"
           transform="translate(489.2471,201.4492)">
          <path
             d="M 0,0 C 0,0.861 0.674,1.561 1.506,1.561 2.337,1.561 3.01,0.861 3.01,0 3.01,-0.863 2.337,-1.563 1.506,-1.563 0.674,-1.563 0,-0.863 0,0"
             style="fill:#000000;fill-opacity:1;fill-rule:nonzero;stroke:none"
             id="path3024" />
        </g>
      </g>
    </g>
  </g>
</svg>
