<?xml version="1.0" encoding="UTF-8" standalone="no"?>
<!-- Created with Inkscape (http://www.inkscape.org/) -->
<svg
   xmlns:dc="http://purl.org/dc/elements/1.1/"
   xmlns:cc="http://creativecommons.org/ns#"
   xmlns:rdf="http://www.w3.org/1999/02/22-rdf-syntax-ns#"
   xmlns:svg="http://www.w3.org/2000/svg"
   xmlns="http://www.w3.org/2000/svg"
   xmlns:sodipodi="http://sodipodi.sourceforge.net/DTD/sodipodi-0.dtd"
   xmlns:inkscape="http://www.inkscape.org/namespaces/inkscape"
   width="110.3104"
   height="168.349"
   id="svg2687"
   sodipodi:version="0.32"
   inkscape:version="0.46"
   version="1.0"
   sodipodi:docname="emblem.svg"
   inkscape:output_extension="org.inkscape.output.svg.inkscape">
  <defs
     id="defs2689">
    <inkscape:perspective
       sodipodi:type="inkscape:persp3d"
       inkscape:vp_x="0 : 526.18109 : 1"
       inkscape:vp_y="0 : 1000 : 0"
       inkscape:vp_z="744.09448 : 526.18109 : 1"
       inkscape:persp3d-origin="372.04724 : 350.78739 : 1"
       id="perspective2695" />
  </defs>
  <sodipodi:namedview
     id="base"
     pagecolor="#ffffff"
     bordercolor="#666666"
     borderopacity="1.0"
     inkscape:pageopacity="0.0"
     inkscape:pageshadow="2"
     inkscape:zoom="0.35"
     inkscape:cx="350"
     inkscape:cy="520"
     inkscape:document-units="px"
     inkscape:current-layer="layer1"
     showgrid="false"
     inkscape:window-width="640"
     inkscape:window-height="670"
     inkscape:window-x="252"
     inkscape:window-y="122" />
  <metadata
     id="metadata2692">
    <rdf:RDF>
      <cc:Work
         rdf:about="">
        <dc:format>image/svg+xml</dc:format>
        <dc:type
           rdf:resource="http://purl.org/dc/dcmitype/StillImage" />
      </cc:Work>
    </rdf:RDF>
  </metadata>
  <g
     inkscape:label="Ebene 1"
     inkscape:groupmode="layer"
     id="layer1"
     transform="translate(-173.41623,-273.90197)">
    <g
       id="Pik"
       transform="translate(-144.14737,-23.509032)">
	<path
   d="M 401.537,297.411 C 401.537,297.411 411.187,310.341 427.814,324.552 L 427.874,437.391 C 416.184,432.104 407.993,423.591 407.993,420.537 C 407.993,417.069 410.631,439.068 427.665,454.246 L 427.691,462.912 L 425.496,465.622 L 368.099,465.76 C 368.099,465.76 393.94,462.718 403.432,420.922 C 403.432,420.922 392.418,444.854 365.816,444.854 C 339.215,444.854 323.253,422.814 323.253,403.809 C 323.253,384.814 334.016,364.212 368.098,335.408 C 375.264,329.354 401.537,297.411 401.537,297.411 z"
   id="path263"
   style="opacity:0.16000001" />

</g>
    <g
       id="Karten"
       transform="translate(-144.14737,-23.509032)">
	<path
   d="M 368.708,368.792 C 368.947,369.566 368.516,370.393 367.74,370.634 L 338.254,379.803 C 337.48,380.044 336.656,379.611 336.414,378.836 L 322.949,335.543 C 322.708,334.767 323.14,333.942 323.916,333.704 L 353.402,324.534 C 354.177,324.292 355.001,324.722 355.243,325.501 L 368.708,368.792 z"
   id="path266"
   style="fill:#ffffff;stroke:#000000" />

	<path
   d="M 343.416,345.302 C 343.416,345.302 345.524,346.832 348.46,347.698 C 351.397,348.564 353.273,350.424 353.82,352.182 C 354.367,353.937 353.323,356.301 351.463,356.875 C 349.606,357.456 347.521,356.474 347.395,356.067 C 347.271,355.663 348.767,359.049 352.239,358.952 L 345.098,361.191 C 345.098,361.191 347.314,360.206 347,356.229 C 347,356.229 346.682,358.66 344.319,359.395 C 341.952,360.132 339.924,358.614 339.398,356.925 C 338.875,355.237 339.26,353.105 341.494,349.603 C 341.964,348.869 343.416,345.302 343.416,345.302 z"
   id="path268" />

	<path
   d="M 330.287,342.619 C 330.287,342.619 330.92,343.06 331.805,343.305 C 332.691,343.543 333.253,344.076 333.412,344.588 C 333.571,345.099 333.247,345.792 332.681,345.966 C 332.117,346.143 331.489,345.862 331.451,345.747 C 331.415,345.625 331.858,346.61 332.908,346.568 L 330.737,347.247 C 330.737,347.247 331.409,346.955 331.332,345.798 C 331.332,345.798 331.227,346.504 330.509,346.728 C 329.789,346.956 329.185,346.517 329.028,346.027 C 328.879,345.538 328.998,344.915 329.692,343.885 C 329.834,343.668 330.287,342.619 330.287,342.619 z"
   id="path270" />

	<g
   id="g272">
		<path
   d="M 328.1,339.117 C 328.108,339.305 328.154,340.464 328.188,340.677 C 328.193,340.74 328.213,340.799 328.226,340.837 C 328.256,340.934 328.374,340.987 328.492,340.95 L 328.737,340.875 C 328.783,340.86 328.801,340.871 328.806,340.895 L 328.867,341.082 C 328.88,341.126 328.879,341.16 328.842,341.171 C 328.761,341.196 328.508,341.249 328.098,341.377 C 327.667,341.511 327.546,341.573 327.463,341.6 C 327.428,341.611 327.415,341.566 327.398,341.513 L 327.355,341.37 C 327.34,341.326 327.347,341.307 327.372,341.301 L 327.547,341.246 C 327.71,341.195 327.783,341.057 327.816,340.794 C 327.834,340.64 327.836,339.161 327.814,338.478 C 327.809,338.315 327.777,336.551 327.775,336.336 C 327.764,336.26 327.758,336.114 327.708,336.079 C 327.684,336.062 327.653,336.023 327.645,336.001 C 327.636,335.971 327.638,335.936 327.681,335.907 C 327.848,335.788 328.099,335.464 328.142,335.352 C 328.163,335.297 328.176,335.259 328.208,335.248 C 328.242,335.238 328.294,335.321 328.319,335.363 C 328.568,335.794 329.545,337.33 329.799,337.777 C 330.12,338.317 330.927,339.593 331.071,339.77 C 331.258,339.991 331.437,340.034 331.554,339.998 L 331.74,339.94 C 331.776,339.928 331.792,339.94 331.803,339.978 L 331.851,340.135 C 331.867,340.18 331.869,340.228 331.823,340.242 C 331.718,340.274 331.592,340.288 330.951,340.489 C 330.46,340.641 330.267,340.724 330.14,340.766 C 330.094,340.78 330.067,340.738 330.053,340.693 L 330.008,340.544 C 329.994,340.499 330.001,340.481 330.037,340.471 L 330.189,340.422 C 330.352,340.371 330.376,340.282 330.277,340.09 C 330.147,339.837 329.615,338.949 329.458,338.696 L 328.1,339.117 z M 329.305,338.415 C 329.179,338.216 328.25,336.632 328.169,336.492 C 328.117,336.411 328.092,336.368 328.067,336.376 C 328.033,336.387 328.019,336.426 328.023,336.497 C 328.031,336.601 328.077,338.608 328.09,338.794 L 329.305,338.415 z"
   id="path274" />

	</g>

	<path
   d="M 374.063,375.446 C 373.96,376.251 373.225,376.824 372.419,376.721 L 341.78,372.877 C 340.973,372.775 340.404,372.039 340.505,371.234 L 346.151,326.25 C 346.252,325.443 346.986,324.873 347.793,324.973 L 378.431,328.82 C 379.237,328.922 379.808,329.655 379.707,330.46 L 374.063,375.446 z"
   id="path276"
   style="fill:#ffffff;stroke:#000000" />

	<g
   id="g278">
		<path
   d="M 349.483,331.709 C 349.411,331.881 348.975,332.957 348.919,333.163 C 348.898,333.225 348.891,333.285 348.887,333.325 C 348.873,333.427 348.959,333.523 349.08,333.541 L 349.336,333.572 C 349.383,333.578 349.395,333.593 349.392,333.617 L 349.369,333.813 C 349.361,333.859 349.345,333.888 349.309,333.883 C 349.224,333.872 348.972,333.818 348.547,333.764 C 348.099,333.707 347.962,333.715 347.875,333.703 C 347.838,333.699 347.847,333.651 347.853,333.597 L 347.872,333.451 C 347.878,333.402 347.892,333.389 347.917,333.392 L 348.1,333.415 C 348.268,333.436 348.391,333.34 348.531,333.113 C 348.607,332.981 349.221,331.634 349.487,331.005 C 349.549,330.854 350.251,329.235 350.337,329.04 C 350.359,328.963 350.413,328.827 350.382,328.777 C 350.367,328.751 350.355,328.702 350.359,328.679 C 350.362,328.648 350.378,328.617 350.427,328.607 C 350.631,328.571 350.993,328.378 351.079,328.294 C 351.121,328.252 351.148,328.224 351.178,328.228 C 351.215,328.233 351.227,328.33 351.234,328.377 C 351.281,328.873 351.537,330.674 351.582,331.187 C 351.655,331.812 351.861,333.307 351.919,333.529 C 351.996,333.808 352.141,333.921 352.262,333.936 L 352.458,333.96 C 352.493,333.964 352.504,333.981 352.499,334.021 L 352.481,334.184 C 352.474,334.231 352.455,334.275 352.407,334.27 C 352.299,334.257 352.178,334.218 351.511,334.134 C 351.001,334.071 350.792,334.068 350.659,334.051 C 350.609,334.044 350.603,333.996 350.609,333.948 L 350.629,333.793 C 350.634,333.746 350.65,333.732 350.686,333.737 L 350.843,333.757 C 351.013,333.779 351.072,333.707 351.062,333.492 C 351.048,333.208 350.932,332.179 350.893,331.882 L 349.483,331.709 z M 350.869,331.566 C 350.837,331.334 350.646,329.508 350.629,329.346 C 350.617,329.249 350.609,329.202 350.587,329.2 C 350.552,329.194 350.521,329.221 350.495,329.29 C 350.458,329.388 349.671,331.234 349.606,331.409 L 350.869,331.566 z"
   id="path280" />

	</g>

	<g
   id="g282">
		<path
   d="M 364.462,358.6 L 354.492,357.25 L 354.64,356.862 C 355.969,356.764 356.864,356.609 357.325,356.401 C 358.013,356.087 358.612,355.566 359.123,354.836 C 359.631,354.107 359.946,353.307 360.065,352.437 C 360.079,352.31 360.102,352.131 360.126,351.895 C 359.516,352.803 358.839,353.432 358.09,353.788 C 357.346,354.142 356.613,354.267 355.9,354.174 C 354.993,354.05 354.264,353.629 353.712,352.907 C 353.163,352.185 352.951,351.363 353.077,350.437 C 353.2,349.529 353.596,348.8 354.259,348.256 C 354.924,347.712 355.624,347.49 356.362,347.589 C 356.832,347.653 357.444,347.939 358.197,348.447 C 357.943,347.853 357.783,347.412 357.723,347.121 C 357.663,346.83 357.658,346.523 357.7,346.201 C 357.821,345.306 358.233,344.594 358.935,344.056 C 359.639,343.522 360.451,343.317 361.378,343.442 C 362.304,343.566 363.038,343.981 363.585,344.687 C 364.132,345.391 364.348,346.171 364.231,347.025 C 364.137,347.723 363.769,348.419 363.124,349.115 C 363.826,348.891 364.246,348.768 364.384,348.746 C 364.605,348.711 364.848,348.714 365.113,348.749 C 365.898,348.854 366.537,349.255 367.03,349.949 C 367.522,350.64 367.707,351.444 367.583,352.352 C 367.457,353.293 367.034,354.04 366.317,354.594 C 365.599,355.147 364.798,355.363 363.912,355.243 C 363.419,355.177 362.928,354.989 362.438,354.679 C 361.95,354.369 361.539,353.99 361.21,353.536 C 360.974,353.21 360.7,352.674 360.384,351.928 C 360.248,353.179 360.304,354.191 360.556,354.963 C 360.805,355.736 361.258,356.408 361.916,356.985 C 362.359,357.373 363.194,357.773 364.425,358.186 L 364.462,358.6 z"
   id="path284" />

	</g>

	<g
   id="g286">
		<path
   d="M 350.813,340.782 L 347.881,340.384 L 347.924,340.271 C 348.316,340.244 348.579,340.197 348.713,340.136 C 348.917,340.044 349.094,339.891 349.243,339.674 C 349.394,339.46 349.485,339.226 349.52,338.97 C 349.525,338.932 349.532,338.88 349.54,338.81 C 349.359,339.078 349.16,339.262 348.941,339.367 C 348.722,339.471 348.507,339.51 348.297,339.48 C 348.029,339.445 347.814,339.32 347.653,339.109 C 347.491,338.896 347.429,338.655 347.466,338.381 C 347.502,338.115 347.618,337.902 347.814,337.74 C 348.008,337.581 348.214,337.514 348.432,337.545 C 348.571,337.564 348.75,337.647 348.972,337.797 C 348.897,337.622 348.851,337.494 348.832,337.406 C 348.816,337.32 348.812,337.23 348.825,337.135 C 348.861,336.874 348.984,336.664 349.189,336.506 C 349.396,336.35 349.634,336.288 349.906,336.325 C 350.179,336.361 350.396,336.484 350.556,336.691 C 350.718,336.897 350.78,337.127 350.748,337.379 C 350.719,337.584 350.609,337.788 350.421,337.994 C 350.629,337.927 350.751,337.891 350.793,337.884 C 350.857,337.874 350.928,337.874 351.005,337.887 C 351.236,337.917 351.425,338.034 351.568,338.238 C 351.714,338.443 351.768,338.678 351.732,338.947 C 351.694,339.222 351.571,339.441 351.36,339.604 C 351.149,339.767 350.913,339.832 350.652,339.794 C 350.507,339.774 350.362,339.722 350.22,339.63 C 350.076,339.539 349.955,339.427 349.857,339.293 C 349.788,339.197 349.708,339.039 349.615,338.821 C 349.574,339.187 349.593,339.485 349.665,339.714 C 349.74,339.941 349.873,340.139 350.064,340.307 C 350.197,340.422 350.44,340.539 350.802,340.661 L 350.813,340.782 z"
   id="path288" />

	</g>

</g>
    <g
       id="Nuts"
       transform="translate(-144.14737,-23.509032)">
	<g
   id="g291">
		<path
   d="M 339.024,414.379 C 339.121,414.439 339.223,414.803 339.225,414.988 C 339.228,415.047 339.228,415.109 339.132,415.109 C 337.653,415.076 336.601,415.034 334.787,415.066 C 332.737,415.103 331.64,415.185 330.4,415.269 C 330.305,415.269 330.304,415.209 330.303,415.147 C 330.297,414.842 330.34,414.595 330.482,414.532 L 331.951,413.894 C 332.33,413.705 332.42,413.459 332.46,412.969 C 332.49,412.113 332.58,406.421 332.536,404.035 C 332.451,399.329 332.228,392.175 329.842,392.217 C 327.982,392.251 326.35,397.174 325.605,403.426 C 325.445,405.142 325.16,410.469 325.258,413.219 C 325.265,413.71 325.459,413.89 325.699,414.008 L 327.19,414.592 C 327.334,414.65 327.388,415.016 327.392,415.201 C 327.392,415.26 327.394,415.322 327.299,415.322 C 325.82,415.289 324.623,415.249 322.859,415.282 C 320.903,415.317 319.808,415.397 318.376,415.485 C 318.281,415.486 318.279,415.424 318.279,415.363 C 318.272,415.058 318.363,414.751 318.505,414.687 L 320.213,414.105 C 320.497,413.98 320.686,413.792 320.679,413.424 C 320.647,411.713 320.42,404.376 320.378,402.054 C 320.345,400.218 320.019,392.824 319.934,390.683 C 319.925,390.255 319.824,389.952 319.49,389.897 L 317.866,389.743 C 317.721,389.744 317.569,389.257 317.564,388.952 C 317.562,388.891 317.562,388.831 317.704,388.766 L 325.069,386.92 C 325.305,386.855 325.404,387.099 325.411,387.404 C 325.414,387.647 325.39,394.132 325.348,397.007 C 325.358,397.619 325.321,398.233 325.285,398.905 L 325.477,398.903 C 325.606,398.166 325.736,397.489 325.827,397.182 C 326.841,392.515 329.172,386.845 332.132,386.792 C 335.424,386.732 337.073,390.86 337.211,398.504 C 337.285,402.541 337.131,409.885 336.986,412.457 C 336.953,413.251 337.053,413.494 337.437,413.672 L 339.024,414.379 z"
   id="path293" />

		<path
   d="M 378.373,388.772 C 378.258,392.934 378.247,397.583 378.34,402.72 C 378.499,411.525 380.239,412.778 381.956,412.746 C 382.338,412.739 382.721,412.731 383.053,412.665 C 383.435,412.6 384.05,412.342 384.902,411.898 C 385.045,411.835 385.098,412.202 385.101,412.445 C 385.108,412.751 385.015,412.875 384.92,412.937 C 384.354,413.316 382.941,414.379 381.467,414.65 C 381.134,414.719 380.751,414.724 379.512,414.749 C 375.646,414.819 373.076,412.601 372.869,403.797 C 372.81,400.495 373.015,393.334 373.27,388.987 L 370.218,389.101 C 370.121,389.105 370.024,389.045 370.02,388.801 C 370.017,388.616 370.059,388.189 370.146,387.819 C 370.284,387.45 370.466,387.017 370.896,387.008 L 373.426,387.024 C 373.5,385.924 373.698,383.657 373.998,381.756 C 374.081,381.081 374.401,380.34 375.677,379.584 C 376.528,379.139 378.277,378.189 378.563,378.185 C 378.66,378.184 378.709,378.306 378.668,378.673 C 378.555,380.386 378.346,384.672 378.341,386.935 L 384.115,387.016 C 384.163,387.016 384.214,387.076 384.214,387.135 C 384.222,387.502 384.039,388.056 383.944,388.058 L 378.373,388.772 z"
   id="path295" />

		<path
   d="M 386.121,394.75 C 386.045,390.592 389.204,385.762 394.309,385.67 C 395.741,385.645 396.791,385.812 397.368,386.044 C 397.514,386.165 397.564,386.225 397.568,386.469 L 398.099,392.087 C 398.105,392.393 397.682,392.768 397.491,392.771 C 397.443,392.773 397.395,392.771 397.346,392.651 C 396.7,391.194 396.101,389.859 395.313,388.405 C 395.166,388.104 395.016,387.861 394.725,387.56 C 394.384,387.199 393.808,387.026 393.188,387.037 C 391.422,387.069 390.456,388.983 390.491,391 C 390.536,393.569 391.516,394.961 394.134,397.054 C 396.894,399.267 398.753,401.802 398.819,405.409 C 398.913,410.605 395.259,414.466 389.963,414.56 C 389.296,414.573 387.719,414.479 386.901,414.125 C 386.755,414.068 386.611,413.946 386.556,413.582 L 386.071,407.901 C 386.066,407.595 386.539,407.281 386.68,407.278 C 386.728,407.278 386.777,407.277 386.827,407.399 C 387.471,408.734 388.169,410.371 388.91,411.764 C 389.156,412.249 389.496,412.49 389.787,412.728 C 390.174,413.028 390.75,413.259 391.226,413.252 C 393.039,413.219 394.876,411.839 394.826,409.028 C 394.784,406.642 393.702,404.95 390.704,402.74 C 387.51,400.411 386.18,397.989 386.121,394.808 L 386.121,394.75 L 386.121,394.75 z"
   id="path297" />

	</g>

	<path
   d="M 364.429,389.682 C 364.429,389.682 365.851,414.632 353.605,412.671 C 341.359,410.715 344.174,390.059 344.174,390.059"
   id="path299"
   style="fill:none;stroke:#000000;stroke-width:3;stroke-linecap:round;stroke-linejoin:round" />

	<path
   d="M 364.745,389.799 C 353.499,384.57 343.043,392.032 343.043,392.032 C 343.043,392.032 342.188,394.794 343.088,395.415 C 343.99,396.03 365.125,392.64 365.125,392.64 L 364.745,389.799 z"
   id="path301"
   style="fill:none;stroke:#000000;stroke-width:6;stroke-linecap:round;stroke-linejoin:round" />

	<path
   d="M 352.278,381.556 C 352.278,381.556 353.867,383.264 353.921,385.731"
   id="path303"
   style="fill:none;stroke:#000000;stroke-width:3;stroke-linecap:round;stroke-linejoin:round" />

	<ellipse
   transform="matrix(-0.9976,-6.95e-2,6.95e-2,-0.9976,681.5823,851.921)"
   cx="355.61401"
   cy="414.10199"
   rx="1.84"
   ry="1.909"
   id="ellipse305"
   sodipodi:cx="355.61401"
   sodipodi:cy="414.10199"
   sodipodi:rx="1.84"
   sodipodi:ry="1.909" />

	<path
   d="M 360.274,391.715 C 357.941,392.264 349.607,394.096 349.107,392.93 C 348.607,391.764 351.6,389.767 354.187,389.682 C 356.774,389.597 359.441,389.682 359.441,389.682"
   id="path307" />

</g>
  </g>
</svg>
